<?xml version="1.0" encoding="utf-8" ?>
<svg xmlns="http://www.w3.org/2000/svg" xmlns:xlink="http://www.w3.org/1999/xlink" width="1024" height="1024">
	<path fill="#0D3B66" transform="scale(2 2)" d="M353.08 221.428C363.914 215.049 366.415 228.828 363.756 236.482C362.08 241.308 356.767 242.858 353.08 239.006C350.215 234.404 350.569 226.252 353.08 221.428Z"/>
	<path fill="#0D3B66" transform="scale(2 2)" d="M152.952 299.589C162.961 299.809 160.166 312.206 159.971 319.509C158.366 321.152 156.824 322.121 154.629 322.759C143.733 323.021 145.115 302.003 152.952 299.589Z"/>
	<path fill="#0D3B66" transform="scale(2 2)" d="M353.08 254.248C354.656 252.864 356.158 252.04 358.311 252.133C366.074 252.469 364.287 263.15 364.288 268.333L364.285 380.864C364.287 387.984 364.821 395.853 363.988 402.883C361.093 427.286 342.614 438.627 319.941 438.633L192.095 438.633C170.512 438.629 152.521 430.591 148.313 406.576C147.245 400.481 147.589 394.083 147.593 387.917L147.593 346.926C147.586 340.985 146.288 330.86 155.742 332.697C161.844 333.882 160.032 344.518 159.992 348.818L159.963 392.948C159.94 409.414 166.166 425.513 184.947 426.122C187.468 426.602 192.811 426.127 195.696 426.126L315.129 426.123C331.243 426.114 346.072 424.703 350.89 404.997C352.277 399.323 352.264 372.365 351.685 364.439L351.677 269.136C351.674 264.312 350.548 258.541 353.08 254.248Z"/>
	<path fill="#F4D35E" transform="scale(2 2)" d="M170.932 357.532C184.05 349.45 184.227 355.027 187.135 366.95C193.562 393.302 216.975 391.499 237.505 391.502L303.313 391.501C321.596 391.508 340.179 391.248 348.568 371.401C349.517 369.156 350.3 366.437 351.685 364.439C352.264 372.365 352.277 399.323 350.89 404.997C346.072 424.703 331.243 426.114 315.129 426.123L195.696 426.126C192.811 426.127 187.468 426.602 184.947 426.122L185.027 426.025C184.595 425.246 181.937 424.111 181.034 423.448C168.353 414.136 170.919 398.82 170.929 385.063C170.936 375.909 170.644 366.677 170.932 357.532Z"/>
	<path fill="#0D3B66" transform="scale(2 2)" d="M241.533 401.069C248.931 400.683 262.694 400.468 270.18 400.989C278.308 401.556 278.358 411.503 271.385 413.785C263.452 414.018 249.993 414.523 242.165 413.851C233.377 413.097 233.417 402.472 241.533 401.069Z"/>
	<path fill="#0D3B66" transform="scale(2 2)" d="M159.971 176.943L159.985 271.845C159.988 275.577 161.173 285.454 158.294 288.258C154.704 291.755 148.634 290.37 147.729 285.101C147.221 282.145 147.578 278.654 147.583 275.631L147.595 177.421C147.593 167.566 148.615 168.419 144.275 159.407C141.659 153.976 140.968 147.689 141.581 141.739L144.17 117.733C146.125 100.85 147.3 89.9552 161.574 78.4865C175.833 67.0294 192.116 68.9909 209.225 69.0058L304.661 69.0047C312.181 69.0012 321.904 68.4717 329.105 69.2786C345.339 71.0979 359.788 83.5485 364.436 99.1321C366.737 106.847 367.264 116.825 368.232 124.902L369.816 138.64C370.732 146.706 371.361 153.435 367.62 160.951C363.512 169.203 364.048 165.114 364.243 174.7C364.425 183.6 368.283 205.625 358.269 207.932C348.739 206.958 351.682 196.017 351.685 189.332C340.439 193.589 327.873 194.139 315.983 192.368C305.141 190.753 300.743 184.918 293.441 177.761C282.136 192.416 271.949 192.956 255.374 192.773C237.356 192.575 230.862 190.97 219.131 176.943C202.818 195.935 193.296 192.799 170.932 192.763C170.723 188.906 170.411 183.735 170.932 179.992C167.15 179.297 163.681 177.829 159.971 176.943ZM177.956 83.6524C156.824 90.6075 158.067 109.315 155.951 126.944C155.226 132.983 153.773 139.231 153.729 145.306C153.653 155.867 161.771 166.552 172.738 167.175C173.961 167.095 175.206 167.16 176.432 167.175L175.811 166.658C159.359 152.926 164.633 141.156 167.017 122.733C167.976 115.316 168.997 99.8072 171.482 93.166C173.424 87.9754 174.759 87.8741 178.058 83.992L177.956 83.6524Z"/>
	<path fill="#F4D35E" transform="scale(2 2)" d="M219.131 166.193C234.716 181.671 239.21 180.071 261.176 179.993C280.48 179.925 280.644 176.422 293.441 166.193C297.002 172.348 304.446 177.073 311.216 178.867C320.849 181.42 341.429 181.089 351.685 176.943C351.682 181.021 351.414 185.275 351.685 189.332C340.439 193.589 327.873 194.139 315.983 192.368C305.141 190.753 300.743 184.918 293.441 177.761C282.136 192.416 271.949 192.956 255.374 192.773C237.356 192.575 230.862 190.97 219.131 176.943C202.818 195.935 193.296 192.799 170.932 192.763C170.723 188.906 170.411 183.735 170.932 179.992C185.37 180.79 202.375 181.68 213.47 171.705C215.427 169.946 217.122 167.883 219.131 166.193Z"/>
	<path fill="#FAF0CA" transform="scale(2 2)" d="M177.956 83.6524C187.239 79.8401 202.622 81.5014 212.547 81.5006L301.6 81.5018C321.9 81.4898 347.672 78.5482 353.124 105.528C354.579 112.726 355.102 120.298 356.027 127.598C357.767 141.343 362.754 158.909 345.74 165.538C340.297 167.659 322.882 167.695 316.918 166.848C288.18 162.766 307.104 125.943 290.502 131.971C281.333 135.3 293.801 157.063 274.245 165.258C268.586 167.629 250.791 167.856 243.758 166.949C233.994 165.69 226.239 157.463 225.751 147.659C225.533 143.279 227.316 128.019 217.124 132.067C208.356 135.549 219.925 155.801 201.125 164.946C196.306 167.291 178.909 167.99 172.738 167.175C173.961 167.095 175.206 167.16 176.432 167.175L175.811 166.658C159.359 152.926 164.633 141.156 167.017 122.733C167.976 115.316 168.997 99.8072 171.482 93.166C173.424 87.9754 174.759 87.8741 178.058 83.992L177.956 83.6524Z"/>
	<path fill="#0D3B66" transform="scale(2 2)" d="M284.416 92.7965C292.828 91.445 295.084 104.191 285.309 105.828C276.814 106.574 274.871 93.8113 284.416 92.7965Z"/>
	<path fill="#0D3B66" transform="scale(2 2)" d="M238.465 92.7965C243.198 92.7825 260.639 92.0195 263.879 93.7049C269.96 96.8686 266.81 104.238 261.26 105.828C256.703 105.826 239.051 106.58 236.175 104.983C230.088 101.603 232.249 94.0361 238.465 92.7965Z"/>
	<path fill="#FAF0CA" transform="scale(2 2)" d="M219.131 176.943C230.862 190.97 237.356 192.575 255.374 192.773C271.949 192.956 282.136 192.416 293.441 177.761C300.743 184.918 305.141 190.753 315.983 192.368C327.873 194.139 340.439 193.589 351.685 189.332C351.682 196.017 348.739 206.958 358.269 207.932L356.992 208.172C356.439 209.215 353.086 220.639 353.08 221.428C350.569 226.252 350.215 234.404 353.08 239.006C351.735 241.857 351.289 251.447 353.08 254.248C350.548 258.541 351.674 264.312 351.677 269.136L351.685 364.439C350.3 366.437 349.517 369.156 348.568 371.401C340.179 391.248 321.596 391.508 303.313 391.501L237.505 391.502C216.975 391.499 193.562 393.302 187.135 366.95C184.227 355.027 184.05 349.45 170.932 357.532C171.386 352.13 170.936 346.491 170.934 341.06L170.932 192.763C193.296 192.799 202.818 195.935 219.131 176.943Z"/>
	<path fill="#0D3B66" transform="scale(2 2)" d="M271.385 252.466C271.73 243.352 270.757 234.066 271.404 224.987C272.489 209.761 289.043 225.978 292.791 230.729C300.759 240.831 304.056 253.625 302.52 266.369C300.573 282.51 291.781 291.12 279.773 300.588C279.638 310.777 281.209 338.248 279.089 346.913C273.212 370.928 238.537 369.593 232.892 345.966C231.565 340.413 232.228 333.766 232.225 328.042L232.226 300.588C208.978 287.453 200.33 252.929 217.66 231.708C220.772 227.898 238.983 210.678 241.365 223.119C242.177 227.355 241.857 243.319 241.839 249.366L241.533 249.594C242.763 250.49 242.025 253.807 241.533 254.99C250.729 254.563 260.193 254.88 269.402 254.99C270.158 254.215 270.758 253.344 271.385 252.466Z"/>
	<path fill="white" transform="scale(2 2)" d="M283.718 240.19C294.272 253.901 291.815 274.814 278.351 285.798C267.525 294.63 267.187 288.101 267.21 305.737L267.255 330.707C267.263 334.614 267.69 339.013 267.123 342.856C265.905 351.117 255.378 354.344 248.996 349.293C243.654 345.063 244.722 337.843 244.743 331.839L244.786 308.652C244.82 292.981 247.09 296.61 235.037 287.425C219.426 275.529 216.721 253.293 228.734 237.669C227.916 243.737 228.684 251.447 230.991 257.136C234.682 254.538 236.716 249.989 241.533 249.594C242.763 250.49 242.025 253.807 241.533 254.99C239.153 256.963 236.892 259.633 234.854 261.976C241.623 269.143 250.221 267.262 259.19 267.267C282.376 267.28 283.669 262.86 283.718 240.19Z"/>
	<path fill="#0D3B66" transform="scale(2 2)" d="M256.314 330.085C265.117 330.614 265.038 342.374 256.314 343.906C247.421 344.302 246.765 331.304 256.314 330.085Z"/>
</svg>
